<svg xmlns="http://www.w3.org/2000/svg" width="232.029" height="236.346" viewBox="0 0 232.029 236.346">
  <path id="Path_2137" data-name="Path 2137" d="M325.955,166.778c23.93,6.321,35.252,32.273,55.313,46.769,20.146,14.556,49.769,16.382,62.017,38.009,13.03,23.009,10.324,51.825,3.29,77.315-7.274,26.358-17.755,57.37-43.211,67.352-25.438,9.975-50.421-15.786-77.409-20.053-20.751-3.281-43.115,8.342-61.455-1.9-19.13-10.688-28.965-32.178-36.426-52.782-7.681-21.214-9.013-43.292-6.478-65.711,3.134-27.716,1.547-60.29,22.77-78.388,21.391-18.241,54.408-17.784,81.588-10.6" transform="translate(-220.426 -162.154)" fill="rgba(255,255,255,0.58)"/>
</svg>
