<svg xmlns="http://www.w3.org/2000/svg" width="308.879" height="286.88" viewBox="0 0 308.879 286.88">
  <path id="Path_2136" data-name="Path 2136" d="M121,198.854c22.115-3.071,43.037-7.547,62.871-17.8,23.253-12.021,51.9-21.746,61.058-46.267,9.215-24.667-4.642-51.519-15.581-75.472C219.5,37.756,207.041,15.838,185.8,5.323,165.955-4.5,142.741,1.5,121,5.678a122.736,122.736,0,0,0-48.92,21.508c-14.9,10.711-25.931,24.466-36.2,39.675C21.358,88.359-1.5,107.916.077,133.808c1.659,27.232,19.911,53.742,43.937,66.667,23.17,12.464,50.921,2,76.981-1.621" transform="matrix(0.921, 0.391, -0.391, 0.921, 80.652, 0)" fill="#c2deff"/>
</svg>
