<svg xmlns="http://www.w3.org/2000/svg" width="248.127" height="228.168" viewBox="0 0 248.127 228.168">
  <path id="Path_2135" data-name="Path 2135" d="M314.521,203.006c25.951-3.171,52.527,4.448,74.034,19.311,21.838,15.092,42.741,36.712,45.266,63.137,2.421,25.337-20.177,44.779-32.847,66.854-9.629,16.776-16.676,35.043-32.235,46.535-15.644,11.555-35.215,13.185-54.219,17.323-25.162,5.479-51.13,21.328-74.6,10.726-24.2-10.934-35.263-39.059-43.784-64.21-8.611-25.415-15.668-53.986-4.535-78.4,10.769-23.62,39.3-31.025,60.957-45.343,20.415-13.5,37.667-32.962,61.96-35.93" transform="translate(-185.875 -202.295)" fill="#c2deff"/>
</svg>
