<svg xmlns="http://www.w3.org/2000/svg" xmlns:xlink="http://www.w3.org/1999/xlink" width="329.38" height="325.241" viewBox="0 0 329.38 325.241">
  <defs>
    <filter id="Path_2055">
      <feOffset dy="10" input="SourceAlpha"/>
      <feGaussianBlur stdDeviation="6" result="blur"/>
      <feFlood flood-opacity="0.161" result="color"/>
      <feComposite operator="out" in="SourceGraphic" in2="blur"/>
      <feComposite operator="in" in="color"/>
      <feComposite operator="in" in2="SourceGraphic"/>
    </filter>
  </defs>
  <g id="Group_1239" data-name="Group 1239" transform="translate(4400.265 -1651.355)">
    <g id="Group_1238" data-name="Group 1238" transform="translate(-4399.765 1651.855)">
      <path id="Path_2064" data-name="Path 2064" d="M3158.49,3567.964l8.685,78.978,55.909-95.262Z" transform="translate(-2904.06 -3322.701)" fill="none" stroke="#b6c6fc" stroke-linecap="round" stroke-linejoin="round" stroke-width="1"/>
      <g id="Group_1237" data-name="Group 1237" transform="translate(0)">
        <g data-type="innerShadowGroup">
          <path id="Path_2055-2" data-name="Path 2055" d="M699,1126.341a144.551,144.551,0,1,1,144.551,144.551A144.551,144.551,0,0,1,699,1126.341Z" transform="translate(-677.486 -968.615)" fill="#f0f0f0" fill-rule="evenodd"/>
          <g transform="matrix(1, 0, 0, 1, -0.5, -0.5)" filter="url(#Path_2055)">
            <path id="Path_2055-3" data-name="Path 2055" d="M699,1126.341a144.551,144.551,0,1,1,144.551,144.551A144.551,144.551,0,0,1,699,1126.341Z" transform="translate(-676.99 -968.11)" fill="#fff" fill-rule="evenodd"/>
          </g>
        </g>
        <path id="Path_2056" data-name="Path 2056" d="M792.09,2717.6c4.068-3.756,18.339-16.855,21.293-18.19s37.21,36.88,33.827,39.614-21.29,19.226-28.024,23.418C805.734,2747.8,796.381,2730.991,792.09,2717.6Z" transform="translate(-760.985 -2509.239)" fill="#fff" fill-rule="evenodd"/>
        <path id="Path_2057" data-name="Path 2057" d="M778.8,2688.852c4.068-3.756,17.834-16.454,20.792-17.789s37.461,39.708,34.077,42.441-21.342,20.262-26.649,23.623" transform="translate(-749.065 -2483.812)" fill="none" stroke="#1b3c87" stroke-linecap="round" stroke-linejoin="round" stroke-width="1"/>
        <path id="Path_2058" data-name="Path 2058" d="M1018.5,2348.291c19.629,29.854-28.578,67.32-35.958,69.472s-39.151-41.376-36.851-47.108S994.8,2312.239,1018.5,2348.291Z" transform="translate(-898.658 -2183.093)" fill="#2d8cff" fill-rule="evenodd"/>
        <path id="Path_2059" data-name="Path 2059" d="M945.616,2313.615c15.585-10.812,34.983-17.05,47.715,2.314,19.629,29.854-28.578,67.32-35.958,69.472s-39.151-41.381-36.85-47.108c.446-1.109,2.56-3.98,5.853-7.625" transform="translate(-876.08 -2154.067)" fill="none" stroke="#1b3c87" stroke-linecap="round" stroke-linejoin="round" stroke-width="1"/>
        <path id="Path_2060" data-name="Path 2060" d="M1341.875,2211.514c-22.109-.133-43.864,4.121-54.586,12.451-17.412,13.53-28.993,97.166-24,122.055a144.616,144.616,0,0,0,154.889,10.091c3.652-31.077-5.35-119.918-19.589-130.726C1386.45,2216.168,1363.985,2211.647,1341.875,2211.514Z" transform="translate(-1182.589 -2071.637)" fill="#2d8cff" fill-rule="evenodd"/>
        <path id="Path_2061" data-name="Path 2061" d="M1315.32,2231.389c4.189-18.391,9.8-33.728,16.444-38.89,21.445-16.66,87.019-17.014,111.3,1.418,15.105,11.469,24.989,110.946,18.786,135.758" transform="translate(-1230.307 -2043.414)" fill="none" stroke="#1b3c87" stroke-linecap="round" stroke-linejoin="round" stroke-width="1"/>
        <path id="Path_2062" data-name="Path 2062" d="M1235.548,3240.615c-1-6.332-1.065-16.6-.309-28.595" transform="translate(-1158.017 -2969.063)" fill="none" stroke="#1b3c87" stroke-linecap="round" stroke-linejoin="round" stroke-width="1"/>
        <path id="Path_2063" data-name="Path 2063" d="M37.333,9l66.042,24.933L75.033,108.989,9,84.056Z" transform="translate(-3.328 -9)" fill="none" stroke="#b6c6fc" stroke-linecap="round" stroke-linejoin="round" stroke-width="1"/>
        <path id="Path_2065" data-name="Path 2065" d="M264.83,701.1a38.8,38.8,0,1,1,38.8,38.8A38.8,38.8,0,0,1,264.83,701.1Z" transform="translate(-241.826 -449.748)" fill="none" stroke="#b6c6fc" stroke-linecap="round" stroke-linejoin="round" stroke-width="2"/>
        <path id="Path_2066" data-name="Path 2066" d="M2704.693,2896.715c-3.081-3.081-24.315-32.042-26.708-34.769s43.007-40.373,45.8-37.081,13.986,18.958,19.206,27.571C2738.8,2860,2715.6,2889.269,2704.693,2896.715Z" transform="translate(-2452.494 -2621.615)" fill="#fff" fill-rule="evenodd"/>
        <path id="Path_2067" data-name="Path 2067" d="M2703.587,2846.8c-2.576-3.512-25.59-35.217-27.983-37.944s43.008-40.372,45.8-37.08,16.164,21.593,20.77,30.548" transform="translate(-2450.359 -2573.995)" fill="none" stroke="#1b3c87" stroke-linecap="round" stroke-linejoin="round" stroke-width="1"/>
        <path id="Path_2068" data-name="Path 2068" d="M2351.873,2278.28c22.925-15.731,78.258,38.3,78.12,54.4s-49.335,45.368-57.53,41.142C2363.43,2369.168,2316.7,2302.4,2351.873,2278.28Z" transform="translate(-2148.46 -2128.98)" fill="#2d8cff" fill-rule="evenodd"/>
        <path id="Path_2069" data-name="Path 2069" d="M2319.25,2287.913c-3.091-14.974-1.106-29.339,11.656-38.091,22.929-15.727,78.258,38.3,78.119,54.407s-49.334,45.367-57.53,41.142c-2.622-1.353-8.423-7.939-14.474-17.2" transform="translate(-2129.652 -2103.455)" fill="none" stroke="#1b3c87" stroke-linecap="round" stroke-linejoin="round" stroke-width="1"/>
        <path id="Path_2070" data-name="Path 2070" d="M699,1125.686c0-79.833,64.717-143.9,144.551-143.9a144.551,144.551,0,0,1,0,289.1C763.717,1270.893,699,1205.519,699,1125.686Z" transform="translate(-677.486 -968.615)" fill="none" stroke="#6a6a6a" stroke-linecap="round" stroke-linejoin="round" stroke-width="3"/>
        <path id="Path_2071" data-name="Path 2071" d="M3307.983,2577.807c.142-4.153,8.235-5.838,18.076-3.764s17.7,7.122,17.564,11.274-8.236,5.837-18.078,3.763S3307.837,2581.959,3307.983,2577.807Z" transform="translate(-3017.664 -2396.021)" fill="#fff" fill-rule="evenodd"/>
        <path id="Path_2072" data-name="Path 2072" d="M3336.315,2423.618c.142-4.152,8.235-5.837,18.076-3.764s17.706,7.122,17.564,11.273-8.236,5.838-18.078,3.764S3336.178,2427.771,3336.315,2423.618Z" transform="translate(-3043.077 -2257.719)" fill="#fff" fill-rule="evenodd"/>
        <path id="Path_2073" data-name="Path 2073" d="M3332.653,2264.272c.142-4.152,8.235-5.837,18.078-3.764s17.7,7.121,17.563,11.273-8.236,5.838-18.078,3.764S3332.511,2268.424,3332.653,2264.272Z" transform="translate(-3039.792 -2114.791)" fill="#fff" fill-rule="evenodd"/>
        <path id="Path_2074" data-name="Path 2074" d="M3371.93,2243.148a33.017,33.017,0,0,1,12.3.528c9.842,2.074,17.7,7.122,17.563,11.273-.1,2.8-3.817,4.483-9.255,4.636" transform="translate(-3075.024 -2099.692)" fill="none" stroke="#1b3c87" stroke-linecap="round" stroke-linejoin="round" stroke-width="1"/>
        <path id="Path_2075" data-name="Path 2075" d="M3348.39,2403.31c3.243-1.4,8.815-1.613,15.1-.289,9.842,2.074,17.7,7.122,17.563,11.274-.1,3.027-4.43,4.74-10.588,4.647" transform="translate(-3053.909 -2242.62)" fill="none" stroke="#1b3c87" stroke-linecap="round" stroke-linejoin="round" stroke-width="1"/>
        <path id="Path_2076" data-name="Path 2076" d="M3368,2556.406a36.383,36.383,0,0,1,10.157.8c9.841,2.074,17.7,7.121,17.563,11.273-.089,2.594-3.284,4.224-8.071,4.579" transform="translate(-3071.499 -2380.923)" fill="none" stroke="#1b3c87" stroke-linecap="round" stroke-linejoin="round" stroke-width="1"/>
        <path id="Path_2077" data-name="Path 2077" d="M516.883,2322.775c.142-4.152,8.236-5.837,18.078-3.763s17.7,7.121,17.563,11.273-8.235,5.837-18.078,3.763S516.741,2326.928,516.883,2322.775Z" transform="translate(-514.132 -2167.267)" fill="#fff" fill-rule="evenodd"/>
        <path id="Path_2078" data-name="Path 2078" d="M545.243,2168.585c.142-4.152,8.236-5.837,18.078-3.763s17.7,7.122,17.563,11.277-8.235,5.837-18.077,3.763S545.1,2172.739,545.243,2168.585Z" transform="translate(-539.57 -2028.963)" fill="#fff" fill-rule="evenodd"/>
        <path id="Path_2079" data-name="Path 2079" d="M541.584,2009.235c.142-4.152,8.236-5.837,18.078-3.763s17.7,7.121,17.563,11.274-8.235,5.837-18.077,3.762S541.443,2013.385,541.584,2009.235Z" transform="translate(-536.287 -1886.031)" fill="#fff" fill-rule="evenodd"/>
        <path id="Path_2080" data-name="Path 2080" d="M519.68,1992.908c-3.029-2-4.856-4.233-4.787-6.253.142-4.152,8.236-5.837,18.078-3.763a40.03,40.03,0,0,1,11.493,4.224" transform="translate(-512.347 -1865.777)" fill="none" stroke="#1b3c87" stroke-linecap="round" stroke-linejoin="round" stroke-width="1"/>
        <path id="Path_2081" data-name="Path 2081" d="M527.13,2154.341c-5.219-2.416-8.671-5.576-8.576-8.339.142-4.152,8.236-5.836,18.078-3.764a40.725,40.725,0,0,1,10.836,3.862" transform="translate(-515.63 -2008.706)" fill="none" stroke="#1b3c87" stroke-linecap="round" stroke-linejoin="round" stroke-width="1"/>
        <path id="Path_2082" data-name="Path 2082" d="M504.43,2310.618c-8.227-2.4-14.362-6.768-14.237-10.44.142-4.152,8.236-5.838,18.078-3.764,5.756,1.213,10.837,3.443,14.033,5.917" transform="translate(-490.192 -2146.997)" fill="none" stroke="#1b3c87" stroke-linecap="round" stroke-linejoin="round" stroke-width="1"/>
        <path id="Path_2083" data-name="Path 2083" d="M1949.752,1894.524c-.937,5.331-5.255,26.8-1.945,50.061-3.817,2.885-26.075,4.969-32.2,0,.217-9.437.432-28.309-.432-33.135S1950.692,1889.194,1949.752,1894.524Z" transform="translate(-1768.348 -1786.41)" fill="#fff" fill-rule="evenodd"/>
        <path id="Path_2084" data-name="Path 2084" d="M1891.341,1914.55c.216-9.437.432-28.309-.432-33.135s35.51-22.254,34.575-16.927-5.254,26.795-1.945,50.061c-1.728,1.3-7.233,2.445-13.311,2.844" transform="translate(-1746.579 -1759.47)" fill="none" stroke="#1b3c87" stroke-linecap="round" stroke-linejoin="round" stroke-width="1"/>
      </g>
    </g>
    <g id="Group_1236 failed-head" data-name="Group 1236" transform="translate(-4288.075 1657.099)"> 
      <path id="Path_2085" data-name="Path 2085" d="M1543.776,1220.522c2.118-25.986,21.621-45.631,43.559-43.879s38.007,24.239,35.887,50.225-21.621,45.635-43.559,43.884S1541.656,1246.508,1543.776,1220.522Z" transform="translate(-1541.126 -1141.445)" fill="#fff" fill-rule="evenodd"/>
      <path id="Path_2086" data-name="Path 2086" d="M1674.327,1936.175a35.56,35.56,0,0,1-23,6.353c-10.216-.816-19.164-6.129-25.587-14.2" transform="translate(-1614.814 -1815.782)" fill="none" stroke="#1b3c87" stroke-linecap="round" stroke-linejoin="round" stroke-width="1"/>
      <path id="Path_2087" data-name="Path 2087" d="M1525.912,1214.8a54.544,54.544,0,0,1-1.775-19.1c2.118-25.986,21.621-45.631,43.56-43.879s38.006,24.239,35.887,50.225a54.156,54.156,0,0,1-6.241,21.35" transform="translate(-1523.511 -1119.182)" fill="none" stroke="#1b3c87" stroke-linecap="round" stroke-linejoin="round" stroke-width="1"/>
      <path id="Path_2088" data-name="Path 2088" d="M1919.181,1469.184c.3-2.809,1.579-4.974,2.851-4.837s2.055,2.526,1.752,5.334-1.581,4.974-2.851,4.836S1918.877,1471.991,1919.181,1469.184Z" transform="translate(-1877.963 -1399.597)" fill="#1b3c87" fill-rule="evenodd"/>
      <path id="Path_2089" data-name="Path 2089" d="M1687.9,1534.19c-1.009,4.348-3.8,9.316-7.142,11.951" transform="translate(-1664.165 -1462.25)" fill="none" stroke="#1b3c87" stroke-linecap="round" stroke-linejoin="round" stroke-width="1"/>
      <path id="Path_2090" data-name="Path 2090" d="M1829.2,1756.569a4.619,4.619,0,1,1,4.619,4.619,4.619,4.619,0,0,1-4.619-4.619Z" transform="translate(-1797.311 -1657.575)" fill="none" stroke="#1b3c87" stroke-linecap="round" stroke-linejoin="round" stroke-width="1"/>
      <path id="Path_2091" data-name="Path 2091" d="M1617.952,959.764c-2.789-.2-10.794-11.621-2.582-19.473-4.03-3.925-27.734-21.668-56.212-10.665-3.7-3.763-13.8-18.892-5.081-25.414s12.358,1.365,13.488,4.5c-2.633-8.277-1.151-30.542,21.018-30.789s46,64.527,45.041,76.151S1632.611,967.269,1617.952,959.764Z" transform="translate(-1547.438 -873.599)" fill="#2f2634" fill-rule="evenodd"/>
      <path id="Path_2092" data-name="Path 2092" d="M1812.139,1170.29c8.387,17.384,13.921,35.983,13.447,41.7-.964,11.624-1.012,13.194-15.671,5.689-2.788-.2-10.794-11.621-2.582-19.473-3.188-3.106-18.7-14.866-39.143-14.185" transform="translate(-1742.587 -1135.843)" fill="none" stroke="#1b3c87" stroke-linecap="round" stroke-linejoin="round" stroke-width="1"/>
      <path id="Path_2093" data-name="Path 2093" d="M1528.228,887.658c-3.7-3.763-13.8-18.892-5.081-25.414s12.364,1.364,13.488,4.5c-2.633-8.278-1.15-30.542,21.018-30.789,5.564-.062,11.238,3.976,16.595,10.241" transform="translate(-1519.694 -835.953)" fill="none" stroke="#1b3c87" stroke-linecap="round" stroke-linejoin="round" stroke-width="1"/>
      <path id="Path_2094" data-name="Path 2094" d="M2142.63,1637.406a10.156,10.156,0,1,1,10.156,10.156A10.156,10.156,0,0,1,2142.63,1637.406Z" transform="translate(-2078.449 -1545.723)" fill="#fff" fill-rule="evenodd"/>
      <path id="Path_2095" data-name="Path 2095" d="M2186.226,1614.821a10.156,10.156,0,1,1-.556,18.176" transform="translate(-2117.054 -1533.74)" fill="none" stroke="#1b3c87" stroke-linecap="round" stroke-linejoin="round" stroke-width="1"/>
      <path id="Path_2131" data-name="Path 2131" d="M1919.181,1469.184c.3-2.809,1.579-4.974,2.851-4.837s2.055,2.526,1.752,5.334-1.581,4.974-2.851,4.836S1918.877,1471.991,1919.181,1469.184Z" transform="translate(-1906.808 -1398.286)" fill="#1b3c87" fill-rule="evenodd"/>
    </g>
  </g>
</svg>
