<svg xmlns="http://www.w3.org/2000/svg" xmlns:xlink="http://www.w3.org/1999/xlink" width="42.917" height="53.501" viewBox="0 0 42.917 53.501">
  <defs>
    <filter id="pin" x="0" y="0" width="42.917" height="53.501" filterUnits="userSpaceOnUse">
      <feOffset dy="2" input="SourceAlpha"/>
      <feGaussianBlur stdDeviation="3" result="blur"/>
      <feFlood flood-color="#2d8cff" flood-opacity="0.478"/>
      <feComposite operator="in" in2="blur"/>
      <feComposite in="SourceGraphic"/>
    </filter>
  </defs>
  <g transform="matrix(1, 0, 0, 1, 0, 0)" filter="url(#pin)">
    <path id="pin-2" data-name="pin" d="M12.417.25A12.108,12.108,0,0,1,21.25,3.875a11.908,11.908,0,0,1,3.667,8.792,16.988,16.988,0,0,1-1.292,5.958,34.589,34.589,0,0,1-3.125,6.25q-1.833,2.875-3.667,5.417T13.75,34.334l-1.333,1.417q-.5-.5-1.333-1.5T8.126,30.376Q6,27.5,4.334,24.793a38.083,38.083,0,0,1-3-6.126,16.842,16.842,0,0,1-1.333-6A11.972,11.972,0,0,1,3.625,3.875,11.972,11.972,0,0,1,12.417.25Zm0,16.833a4.4,4.4,0,0,0,3.167-1.292,4.33,4.33,0,0,0,0-6.25A4.389,4.389,0,0,0,12.417,8.25,4.411,4.411,0,0,0,8,12.667a4.409,4.409,0,0,0,4.417,4.416Z" transform="translate(9 6.75)" fill="#2d8cff"/>
  </g>
</svg>
