<svg xmlns="http://www.w3.org/2000/svg" width="330.892" height="317.388" viewBox="0 0 330.892 317.388">
  <g id="Group_1235" data-name="Group 1235" transform="translate(3665.641 -484.521)">
    <g id="Group_1234" data-name="Group 1234" transform="translate(-3664.641 484.521)">
      <path id="Path_2096" data-name="Path 2096" d="M24.282,3.4C.475,16.028,2.436,66.686,1.457,111.073s-4.91,82.486,6.169,121.672,37.131,79.435,69.948,84.138c32.915,4.8,72.687-25.862,117.653-42.22s95.1-18.42,115.008-42.813,9.4-71.119-11.56-103.136c-21.061-32.035-52.608-49.276-79.645-61.324-26.939-12.051-49.469-18.907-85.422-35.072C97.558,16.235,48.086-9.235,24.282,3.4Z" transform="translate(9.04 0)" fill="#f0f0f0"/>
      <path id="Path_2097" data-name="Path 2097" d="M57.269,518.735c2.455-.7,9.82-5.261,11.223-7.014s4.735,2.5-1.315,8.256" transform="translate(239.122 -331.99)" fill="#fff"/>
      <path id="Path_2098" data-name="Path 2098" d="M49.269,510.735c2.455-.7,9.82-5.261,11.223-7.014s4.735,2.5-1.315,8.256" transform="translate(249.928 -326.796)" fill="none" stroke="#1b3c87" stroke-linecap="round" stroke-linejoin="round" stroke-width="1"/>
      <path id="Path_2099" data-name="Path 2099" d="M135.876,534.436c1.754-2.1,7.716-10.872,8.768-13.678s8.217-5.612,3.584,13.678" transform="translate(132.457 -336.819)" fill="#fff"/>
      <path id="Path_2100" data-name="Path 2100" d="M125.876,524.437c1.754-2.1,7.716-10.872,8.768-13.678.908-2.416,6.348-4.833,4.879,6.874" transform="translate(145.964 -330.327)" fill="none" stroke="#1b3c87" stroke-linecap="round" stroke-linejoin="round" stroke-width="1"/>
      <path id="Path_2101" data-name="Path 2101" d="M61.328,571.9c2.238,4.644,12.058,22.881,12.058,22.881s22.446-48.049,24.9-49.1,39.982-14.029,47-17.887c2.806-1.4,11.223,1.052-4.209,11.223s-30.513,18.588-32.266,22.1-14.38,57.869-14.38,57.869H47.391c-3.114,0-13.636-34.371-13.636-34.371S58.736,569.013,61.328,571.9Z" transform="translate(167.942 -342.447)" fill="#fff"/>
      <path id="Path_2102" data-name="Path 2102" d="M206.085,621.468c-1.95,8.249-3.37,14.352-3.37,14.352H155.676c-3.114,0-13.636-34.371-13.636-34.371s24.982-15.593,27.574-12.71c2.238,4.643,12.058,22.881,12.058,22.881s22.446-48.049,24.9-49.1c.758-.323,4.84-1.778,10.332-3.749" transform="translate(63.163 -362.798)" fill="none" stroke="#1b3c87" stroke-linecap="round" stroke-linejoin="round" stroke-width="1"/>
      <path id="Path_2103" data-name="Path 2103" d="M107.615,567.76c-11.679,7.365-21.447,13.247-22.839,16.028-.922,1.848-4.872,17.838-8.4,32.54" transform="translate(195.481 -368.635)" fill="none" stroke="#1b3c87" stroke-linecap="round" stroke-linejoin="round" stroke-width="1"/>
      <path id="Path_2104" data-name="Path 2104" d="M23.752,528.607c11.188-4.065,23.7-8.75,27.458-10.816,2.557-1.277,9.764.645-.621,8.68" transform="translate(265.523 -335.955)" fill="none" stroke="#1b3c87" stroke-linecap="round" stroke-linejoin="round" stroke-width="1"/>
      <path id="Path_2105" data-name="Path 2105" d="M282.7,485.389c-21.022,10.914,2.508,65.234,15.432,78.982,10.581,2.294,47.908-15.635,52.52-27.539C346.778,525.1,312.663,469.831,282.7,485.389Z" transform="translate(-116.979 -313.374)" fill="#2d8cff"/>
      <path id="Path_2106" data-name="Path 2106" d="M717.494,217.46,696.5,265.611l85.607,14.576Z" transform="translate(-696.5 -141.192)" fill="none" stroke="#b6c6fc" stroke-linecap="round" stroke-linejoin="round" stroke-width="2"/>
      <rect id="Rectangle_436" data-name="Rectangle 436" width="64.126" height="56.417" transform="translate(258.356 160.251) rotate(-130.07)" fill="none" stroke="#b6c6fc" stroke-linecap="round" stroke-linejoin="round" stroke-width="2"/>
      <path id="Path_2107" data-name="Path 2107" d="M311.7,486.212c-11.854-10.816-25.824-17.662-38.993-10.823-21.022,10.914,2.508,65.234,15.432,78.982,10.581,2.294,47.909-15.635,52.521-27.539-1.21-3.665-5.373-11.574-11.441-20.265" transform="translate(-103.471 -306.881)" fill="none" stroke="#1b3c87" stroke-linecap="round" stroke-linejoin="round" stroke-width="1"/>
      <path id="Path_2108" data-name="Path 2108" d="M546.961,437.463a52.532,52.532,0,0,0-29.882-9c-43.489,0-61.727,57.518-62.779,123.1" transform="translate(-376.408 -278.19)" fill="none" stroke="#1b3c87" stroke-linecap="round" stroke-linejoin="round" stroke-width="1"/>
      <path id="Path_2109" data-name="Path 2109" d="M372.726,533.923c-5.612-18.15-13.583-35.605-24.866-48.333" transform="translate(-164.843 -315.283)" fill="none" stroke="#1b3c87" stroke-linecap="round" stroke-linejoin="round" stroke-width="1"/>
      <path id="Path_2110" data-name="Path 2110" d="M320.542,730.7c-.9-7.881-2.171-16.694-3.932-25.887" transform="translate(-101.699 -457.618)" fill="none" stroke="#1b3c87" stroke-linecap="round" stroke-linejoin="round" stroke-width="1"/>
      <path id="Path_2111" data-name="Path 2111" d="M327.82,557.705c1.7-63.964,20.061-119.245,62.695-119.245,54.085,0,72.013,73.245,77.748,119.245Z" transform="translate(-253.351 -284.683)" fill="#2d8cff"/>
      <path id="Path_2112" data-name="Path 2112" d="M657.54,662.228l10.171-23.768,38.93,23.849c-1.192,4.293-5.3,17.34-7.811,25.252" transform="translate(-607.369 -414.539)" fill="none" stroke="#1b3c87" stroke-linecap="round" stroke-linejoin="round" stroke-width="1"/>
      <path id="Path_2113" data-name="Path 2113" d="M667.5,694.243V663.6l6.488-15.141,38.93,23.849c-1.052,3.732-4.279,14.081-6.755,21.92Z" transform="translate(-617.14 -421.031)" fill="#fff"/>
      <path id="Path_2114" data-name="Path 2114" d="M658.685,477.024c-21.394-10.171-50.5,41.385-53.66,59.973,4.559,9.82,41.385,28.759,53.66,25.252C665.7,552.079,689.173,491.52,658.685,477.024Z" transform="translate(-556.242 -308.868)" fill="#2d8cff"/>
      <path id="Path_2115" data-name="Path 2115" d="M664.311,485.59c-15.761,13.173-30.2,41.536-32.371,54.316,4.559,9.82,41.385,28.759,53.66,25.252a36.7,36.7,0,0,0,2.3-4.019" transform="translate(-579.651 -315.283)" fill="none" stroke="#1b3c87" stroke-linecap="round" stroke-linejoin="round" stroke-width="1"/>
      <path id="Path_2116" data-name="Path 2116" d="M604.539,523.932c4.167-18.781,4.384-39.824-9.519-49.192" transform="translate(-485.83 -308.239)" fill="none" stroke="#1b3c87" stroke-linecap="round" stroke-linejoin="round" stroke-width="1"/>
      <path id="Path_2117" data-name="Path 2117" d="M187.642,156.46H175.5V374.608H393.648V364.125" transform="translate(-125.315 -101.586)" fill="none" stroke="#1b3c87" stroke-linecap="round" stroke-linejoin="round" stroke-width="1"/>
      <path id="Path_2118" data-name="Path 2118" d="M334.643,173.354V156.46H175.5" transform="translate(-66.31 -101.586)" fill="none" stroke="#1b3c87" stroke-linecap="round" stroke-linejoin="round" stroke-width="1"/>
      <line id="Line_636" data-name="Line 636" y1="76.401" transform="translate(268.333 125.123)" fill="none" stroke="#1b3c87" stroke-linecap="round" stroke-linejoin="round" stroke-width="1"/>
      <path id="Path_2119" data-name="Path 2119" d="M485,344a144.176,144.176,0,0,1,3.858,42.437c5.962,5.261,25.953,6.313,35.072-.7a139.915,139.915,0,0,1-1.4-28.408C522.878,350.313,485,344,485,344Z" transform="translate(-364.145 -223.352)" fill="#fff"/>
      <path id="Path_2120" data-name="Path 2120" d="M515.93,377.736a139.919,139.919,0,0,1-1.4-28.408C514.878,342.313,477,336,477,336a144.174,144.174,0,0,1,3.858,42.437c3.532,3.114,11.974,4.752,20.17,4.117" transform="translate(-353.339 -218.158)" fill="none" stroke="#1b3c87" stroke-linecap="round" stroke-linejoin="round" stroke-width="1"/>
    </g>
    <g id="Group_1233" data-name="Group 1233" transform="translate(-3563.058 515.552)">
      <ellipse id="Ellipse_5413" data-name="Ellipse 5413" cx="36.3" cy="46.295" rx="36.3" ry="46.295" transform="translate(10.785 16.835)" fill="#fff"/>
      <g id="Group_1232" data-name="Group 1232" transform="translate(0 0)">
        <path id="Path_2121" data-name="Path 2121" d="M429.87,361.141A29.965,29.965,0,0,0,446.077,366c11.132,0,21.092-6.39,27.753-16.452" transform="translate(-399.957 -256.577)" fill="none" stroke="#1b3c87" stroke-linecap="round" stroke-linejoin="round" stroke-width="1"/>
        <path id="Path_2122" data-name="Path 2122" d="M476.216,193.517a58.016,58.016,0,0,0,1.883-14.762c0-25.568-16.249-46.3-36.3-46.3s-36.3,20.728-36.3,46.3a57.361,57.361,0,0,0,2.785,17.81" transform="translate(-395.68 -115.625)" fill="none" stroke="#1b3c87" stroke-linecap="round" stroke-linejoin="round" stroke-width="1"/>
        <path id="Path_2123" data-name="Path 2123" d="M442.5,252.46c.351,3.507,4.91,13.327,8.417,16.835" transform="translate(-381.474 -193.539)" fill="none" stroke="#1b3c87" stroke-linecap="round" stroke-linejoin="round" stroke-width="1"/>
        <path id="Path_2124" data-name="Path 2124" d="M481.567,331.37c-1.754,0-5.261-.7-8.067-4.91" transform="translate(-422.996 -241.586)" fill="none" stroke="#1b3c87" stroke-linecap="round" stroke-linejoin="round" stroke-width="1"/>
        <ellipse id="Ellipse_5414" data-name="Ellipse 5414" cx="3.595" cy="1.666" rx="3.595" ry="1.666" transform="translate(70.229 65.465) rotate(-99.53)" fill="#1b3c87"/>
        <path id="Path_2125" data-name="Path 2125" d="M379.5,138.651c0-18.588,20.342-31.214,34.02-35.423,11.058-3.4,28.408-8.768,37.527-8.768,11.223,0,19.991,11.574,19.991,23.148,0,12.626-6.664,22.1-14.73,24.2-1.4-4.209-2.1-5.962-2.1-5.962-1.4,1.754-38.93,6.313-51.556,5.962,1.052,4.559,1.754,20.693-5.261,21.043C393.529,163.2,379.5,167.41,379.5,138.651Z" transform="translate(-379.5 -90.953)" fill="#2f2736"/>
        <path id="Path_2126" data-name="Path 2126" d="M373.01,98.489a62.881,62.881,0,0,1,12.107-5.261c11.058-3.4,28.408-8.768,37.527-8.768,8.722,0,15.961,6.986,18.753,15.533" transform="translate(-347.583 -84.46)" fill="none" stroke="#1b3c87" stroke-linecap="round" stroke-linejoin="round" stroke-width="1"/>
        <path id="Path_2127" data-name="Path 2127" d="M585.759,174.433c1.052,4.559,1.754,20.693-5.261,21.043-3.858.351-17.887,4.559-17.887-24.2,0-8.326,4.082-15.453,9.82-21.166" transform="translate(-559.104 -127.085)" fill="none" stroke="#1b3c87" stroke-linecap="round" stroke-linejoin="round" stroke-width="1"/>
        <path id="Path_2128" data-name="Path 2128" d="M424.131,172.56c-2.076,8.649-7.526,14.8-13.839,16.449-1.4-4.209-2.1-5.962-2.1-5.962-1,1.256-20.542,3.953-36.187,5.261" transform="translate(-329.962 -141.661)" fill="none" stroke="#1b3c87" stroke-linecap="round" stroke-linejoin="round" stroke-width="1"/>
        <circle id="Ellipse_5415" data-name="Ellipse 5415" cx="9.469" cy="9.469" r="9.469" transform="translate(5.962 63.48)" fill="#fff"/>
        <path id="Path_2129" data-name="Path 2129" d="M568.118,267.735A9.469,9.469,0,0,0,561.5,258.7" transform="translate(-540.411 -197.59)" fill="none" stroke="#1b3c87" stroke-linecap="round" stroke-linejoin="round" stroke-width="1"/>
        <path id="Path_2130" data-name="Path 2130" d="M592.676,257.894a9.469,9.469,0,1,0-2.851,18.5,9.587,9.587,0,0,0,2.369-.3" transform="translate(-571.587 -196.785)" fill="none" stroke="#1b3c87" stroke-linecap="round" stroke-linejoin="round" stroke-width="1"/>
        <ellipse id="Ellipse_5416" data-name="Ellipse 5416" cx="3.595" cy="1.666" rx="3.595" ry="1.666" transform="translate(46.731 68.271) rotate(-99.53)" fill="#1b3c87"/>
      </g>
    </g>
  </g>
</svg>
